<svg xmlns="http://www.w3.org/2000/svg" viewBox="0 0 1000 184.22042"><defs><style>.cls-1{fill:#fff;}.cls-2{fill:#eb5358;}.cls-3{fill:#f5a9ab;}.cls-4{fill:#ef6f74;}.cls-5{fill:#e8363c;}</style></defs><g id="Layer_2" data-name="Layer 2"><g id="Layer_1-2" data-name="Layer 1"><path class="cls-1" d="M237.41477,136.36228H153.819c3.081,13.76131,14.78644,22.18244,31.6315,22.18244,11.70825,0,20.12939-3.49325,27.72875-10.68033l17.04842,18.48584c-10.27084,11.70825-25.6757,17.87019-45.59895,17.87019-38.20573,0-63.05965-24.03214-63.05965-56.8977,0-33.06892,25.2662-56.89492,58.95076-56.89492,32.45328,0,57.51334,21.77295,57.51334,57.3072C238.03319,130.19755,237.62091,133.6908,237.41477,136.36228Zm-84.008-18.692H207.8391c-2.25919-13.96745-12.73617-23.007-27.11311-23.007C166.14291,94.6633,155.66593,103.49672,153.40674,117.67031Z"/><path class="cls-1" d="M251.16493,127.32272c0-33.27506,25.6757-56.89492,61.62223-56.89492,23.21037,0,41.49006,10.0647,49.5017,28.13825l-24.85392,13.35181c-5.95859-10.47419-14.78922-15.19872-24.85392-15.19872-16.22664,0-28.96281,11.296-28.96281,30.60358s12.73617,30.60637,28.96281,30.60637c10.0647,0,18.89533-4.52118,24.85392-15.20151l24.85392,13.558c-8.01164,17.66406-26.29133,27.93489-49.5017,27.93489C276.84063,184.22042,251.16493,160.59778,251.16493,127.32272Z"/><path class="cls-1" d="M492.91262,119.31386v63.263H460.86884V124.24175c0-17.8702-8.215-26.0852-22.38859-26.0852-15.40486,0-26.49748,9.44906-26.49748,29.78181v54.63851h-32.041V30.169h32.041V83.57347c8.62728-8.62728,20.95117-13.14567,35.12476-13.14567C473.19272,70.4278,492.91262,85.62652,492.91262,119.31386Z"/><path class="cls-1" d="M708.56676,119.31386v63.263h-32.041V124.24175c0-17.8702-8.01164-26.0852-20.95117-26.0852-14.37694,0-24.44164,9.24292-24.44164,28.96v55.46029H599.08917V124.24175c0-17.8702-7.59936-26.0852-20.95117-26.0852-14.17359,0-24.23828,9.24292-24.23828,28.96v55.46029h-32.041V72.07136H552.4623V84.80474c8.21778-9.449,20.54167-14.37694,34.71247-14.37694,15.40487,0,28.55053,5.9558,36.356,18.07355,8.83343-11.296,23.21037-18.07355,39.84929-18.07355C689.67143,70.4278,708.56676,85.62652,708.56676,119.31386Z"/><path class="cls-1" d="M846.16867,136.36228H762.57013c3.081,13.76131,14.78922,22.18244,31.6315,22.18244,11.70825,0,20.12939-3.49325,27.72875-10.68033l17.04842,18.48584c-10.27084,11.70825-25.6757,17.87019-45.59895,17.87019-38.20573,0-63.05965-24.03214-63.05965-56.8977,0-33.06892,25.26621-56.89492,58.95076-56.89492,32.45328,0,57.51334,21.77295,57.51334,57.3072C846.7843,130.19755,846.372,133.6908,846.16867,136.36228Zm-84.01082-18.692h54.43237c-2.2592-13.96745-12.73618-23.007-27.11312-23.007C774.894,94.6633,764.417,103.49672,762.15785,117.67031Z"/><path class="cls-1" d="M903.2558,69.81216v4.72175H931.603V99.18447h-27.5254v83.3924h-32.041V99.18447H854.98816V74.53391h17.04842V69.606c0-24.85392,15.19872-41.08056,42.72411-41.08056,9.03678,0,18.48584,1.8497,24.44164,5.95581l-8.42114,23.21036a22.43674,22.43674,0,0,0-12.93952-3.90275C908.39261,53.78888,903.2558,58.92569,903.2558,69.81216ZM960.1535,38.7963c0-10.0647,8.01164-17.8702,19.92325-17.8702C991.99114,20.9261,1000,28.31932,1000,38.17788c0,10.68311-8.00886,18.48862-19.92325,18.48862C968.16514,56.6665,960.1535,48.861,960.1535,38.7963Zm3.90275,33.27506h32.041V182.57687h-32.041Z"/><rect class="cls-2" y="28.52546" width="28.52546" height="28.52546"/><rect class="cls-3" x="78.19745" y="57.05092" width="28.52546" height="28.52546"/><rect class="cls-2" x="28.52546" width="28.52546" height="28.52546"/><rect class="cls-4" x="78.19745" width="28.52546" height="28.52546"/><path class="cls-5" d="M106.7229,155.68382v28.52546H57.06263a28.52546,28.52546,0,0,1-28.52546-28.52546V57.04256H57.06263v98.64126Z"/></g></g></svg>